<?xml version="1.0" standalone="no"?>
<!DOCTYPE svg PUBLIC "-//W3C//DTD SVG 20010904//EN"
 "http://www.w3.org/TR/2001/REC-SVG-20010904/DTD/svg10.dtd">
<svg version="1.0" xmlns="http://www.w3.org/2000/svg"
 width="700.000000pt" height="700.000000pt" viewBox="0 0 700.000000 700.000000"
 preserveAspectRatio="xMidYMid meet">
<metadata>
Created by potrace 1.14, written by Peter Selinger 2001-2017
</metadata>
<g transform="translate(0.000000,700.000000) scale(0.100000,-0.100000)"
fill="#000000" stroke="none">
<path d="M3278 6995 c-1 -1 -41 -5 -88 -9 -47 -4 -96 -8 -110 -10 -14 -2 -46
-7 -71 -10 -62 -9 -136 -22 -239 -42 -389 -77 -848 -272 -1215 -517 -87 -58
-232 -165 -267 -197 -9 -8 -41 -35 -72 -60 -61 -50 -308 -298 -374 -375 -308
-360 -550 -799 -690 -1255 -38 -121 -90 -345 -106 -455 -2 -16 -8 -50 -12 -75
-7 -48 -8 -59 -21 -190 -15 -161 -8 -592 11 -710 3 -14 7 -45 10 -70 15 -114
18 -137 26 -170 5 -19 12 -48 14 -65 54 -300 217 -727 399 -1040 66 -115 210
-323 303 -440 94 -116 358 -388 459 -471 33 -27 62 -52 65 -55 3 -3 41 -32 85
-65 369 -278 775 -477 1212 -594 65 -18 127 -34 138 -36 21 -4 34 -7 120 -24
62 -12 95 -17 154 -26 25 -3 57 -8 71 -10 163 -25 682 -25 842 1 13 2 46 7 73
10 28 4 59 9 70 10 44 6 192 36 230 46 22 6 48 13 57 14 42 8 182 51 285 86
1050 362 1873 1209 2202 2264 36 117 66 225 77 280 16 80 54 301 60 350 4 33
9 76 11 95 8 70 10 547 2 610 -4 36 -11 97 -14 135 -4 39 -8 72 -10 75 -2 3
-6 30 -10 60 -7 55 -58 298 -75 355 -151 510 -346 891 -658 1282 -92 115 -353
383 -462 474 -36 29 -67 56 -70 59 -12 13 -193 142 -275 197 -391 261 -906
461 -1360 529 -27 4 -57 9 -65 10 -8 2 -44 6 -80 10 -36 3 -78 8 -95 11 -33 5
-531 13 -537 8z m447 -159 c61 -3 120 -8 132 -10 12 -3 50 -7 85 -11 35 -3 81
-10 103 -15 22 -5 81 -16 130 -26 270 -50 640 -183 895 -321 307 -167 537
-339 790 -593 214 -214 359 -396 509 -644 194 -317 358 -752 421 -1116 6 -36
13 -76 16 -90 2 -14 7 -49 10 -79 3 -30 8 -64 10 -75 6 -32 17 -260 17 -351 1
-87 -11 -321 -18 -370 -22 -157 -41 -270 -65 -378 -87 -384 -249 -764 -469
-1096 -258 -389 -632 -756 -1007 -988 -317 -196 -586 -313 -934 -407 -100 -27
-208 -50 -275 -60 -23 -4 -50 -8 -61 -10 -18 -4 -61 -10 -154 -21 -57 -7 -292
-18 -385 -18 -96 0 -301 11 -338 19 -10 2 -48 6 -85 10 -37 3 -69 7 -72 9 -3
2 -26 6 -50 10 -183 26 -510 122 -730 215 -241 101 -544 277 -720 417 -8 6
-53 42 -100 79 -109 86 -396 374 -480 482 -151 193 -266 370 -362 552 -178
338 -308 747 -353 1110 -3 25 -8 61 -10 80 -26 203 -22 561 9 795 189 1412
1253 2557 2641 2839 118 24 140 28 240 41 28 4 61 8 74 10 13 2 76 7 140 11
64 3 117 7 118 8 4 3 227 -2 328 -8z"/>
<path d="M3467 6474 c-1 -1 -63 -4 -138 -7 -75 -4 -142 -8 -150 -11 -8 -3 -39
-7 -69 -10 -61 -6 -188 -28 -265 -46 -27 -6 -57 -13 -65 -15 -152 -35 -408
-129 -590 -218 -348 -169 -724 -464 -958 -752 -31 -38 -67 -81 -80 -95 -26
-28 -198 -284 -232 -344 -60 -109 -143 -281 -185 -386 -48 -121 -121 -355
-140 -455 -22 -110 -44 -250 -49 -305 -4 -36 -9 -87 -12 -115 -12 -105 -6
-407 12 -550 25 -207 53 -345 109 -531 114 -376 309 -736 576 -1059 31 -38
295 -303 334 -335 130 -109 381 -290 401 -290 3 0 18 -9 33 -19 46 -33 252
-136 366 -184 154 -64 396 -139 515 -161 14 -2 36 -7 50 -10 43 -11 222 -36
305 -44 195 -17 569 -5 715 23 14 3 43 8 65 11 83 12 233 47 344 81 657 199
1230 624 1618 1201 256 381 428 840 478 1277 4 33 9 69 12 80 9 38 10 450 2
539 -25 267 -71 484 -149 711 -154 445 -379 804 -715 1141 -412 413 -913 689
-1470 809 -108 23 -131 27 -230 40 -27 4 -61 9 -75 11 -39 6 -358 22 -363 18z
m213 -98 c63 -4 129 -8 145 -11 17 -2 53 -7 80 -11 28 -4 59 -8 70 -10 90 -11
320 -68 440 -109 902 -305 1597 -1032 1860 -1944 33 -114 67 -273 81 -376 3
-27 8 -59 10 -70 23 -117 22 -579 -2 -697 -2 -13 -6 -43 -9 -68 -3 -25 -7 -56
-10 -70 -3 -14 -8 -38 -10 -55 -16 -87 -80 -320 -120 -432 -56 -156 -181 -412
-268 -550 -60 -94 -191 -276 -227 -314 -8 -9 -38 -42 -67 -75 -225 -258 -528
-491 -848 -653 -315 -160 -664 -264 -990 -297 -38 -3 -83 -8 -100 -10 -98 -10
-437 -4 -535 11 -14 2 -45 7 -70 10 -987 130 -1864 800 -2258 1725 -59 138
-122 328 -147 440 -44 193 -47 213 -61 325 -3 33 -9 69 -11 80 -9 41 -11 453
-2 535 19 188 29 247 70 423 147 631 535 1225 1059 1620 420 317 881 504 1410
572 19 2 94 7 165 11 72 4 131 7 133 9 1 1 23 1 50 -1 26 -1 99 -5 162 -8z"/>
<path d="M2297 5462 c-16 -3 -17 -104 -17 -1455 -1 -799 -1 -1681 -2 -1962 l0
-510 598 2 c578 2 923 8 973 18 14 2 46 7 72 10 27 3 90 16 141 29 405 103
684 343 829 714 44 113 85 278 95 382 3 36 8 79 10 95 2 17 6 62 10 100 3 39
7 88 10 110 22 228 22 867 -1 1090 -2 22 -6 74 -10 115 -12 156 -20 217 -41
310 -84 376 -317 682 -627 825 -168 78 -283 101 -587 121 -104 7 -1421 12
-1453 6z m1408 -406 c170 -15 367 -79 482 -157 26 -18 83 -68 125 -111 140
-142 210 -333 244 -663 4 -38 8 -83 10 -100 2 -16 7 -167 10 -334 l7 -303 -81
56 c-113 79 -309 166 -432 191 -129 27 -253 49 -330 60 -25 3 -52 8 -60 10 -8
2 -37 6 -64 10 -27 3 -52 8 -55 10 -3 1 -24 6 -46 9 -287 44 -502 126 -610
234 -174 174 -202 507 -62 754 143 251 452 371 862 334z m-933 -1544 c18 -10
58 -28 88 -41 30 -12 64 -26 75 -31 65 -29 301 -90 425 -110 77 -13 97 -16
140 -25 14 -2 45 -7 70 -10 49 -7 317 -50 365 -60 254 -50 411 -185 475 -411
53 -184 38 -351 -43 -498 -68 -122 -152 -198 -292 -266 -168 -81 -312 -114
-495 -114 -143 0 -224 11 -359 51 -202 58 -330 165 -408 341 -29 65 -68 235
-78 333 -4 50 -10 776 -6 847 1 16 4 15 43 -6z"/>
</g>
</svg>
